<mxfile host="app.diagrams.net" modified="2024-05-13T13:53:29.249Z" agent="Mozilla/5.0 (Macintosh; Intel Mac OS X 10_15_7) AppleWebKit/537.36 (KHTML, like Gecko) Chrome/120.0.0.0 Safari/537.36" etag="IDS1oDyEX5pYM2SDKs0u" version="24.4.0" type="device">
  <diagram name="Page-1" id="MpgtI45hoYSzAs3flKzX">
    <mxGraphModel dx="1194" dy="682" grid="1" gridSize="10" guides="1" tooltips="1" connect="1" arrows="1" fold="1" page="1" pageScale="1" pageWidth="827" pageHeight="1169" math="0" shadow="0">
      <root>
        <mxCell id="0" />
        <mxCell id="1" parent="0" />
        <mxCell id="zHANtOEIMGBG5rkSFk1E-3" value="" style="edgeStyle=orthogonalEdgeStyle;rounded=0;orthogonalLoop=1;jettySize=auto;html=1;" parent="1" source="zHANtOEIMGBG5rkSFk1E-1" target="zHANtOEIMGBG5rkSFk1E-2" edge="1">
          <mxGeometry relative="1" as="geometry" />
        </mxCell>
        <mxCell id="zHANtOEIMGBG5rkSFk1E-1" value="Actor" style="shape=umlActor;verticalLabelPosition=bottom;verticalAlign=top;html=1;outlineConnect=0;" parent="1" vertex="1">
          <mxGeometry x="20" y="280" width="30" height="60" as="geometry" />
        </mxCell>
        <mxCell id="zHANtOEIMGBG5rkSFk1E-21" value="" style="edgeStyle=orthogonalEdgeStyle;rounded=0;orthogonalLoop=1;jettySize=auto;html=1;entryX=0;entryY=0.5;entryDx=0;entryDy=0;" parent="1" source="zHANtOEIMGBG5rkSFk1E-2" target="zHANtOEIMGBG5rkSFk1E-4" edge="1">
          <mxGeometry relative="1" as="geometry" />
        </mxCell>
        <mxCell id="zHANtOEIMGBG5rkSFk1E-2" value="API&amp;nbsp;&lt;br&gt;Gateway" style="rounded=1;whiteSpace=wrap;html=1;" parent="1" vertex="1">
          <mxGeometry x="150" y="225" width="80" height="170" as="geometry" />
        </mxCell>
        <mxCell id="zHANtOEIMGBG5rkSFk1E-6" value="StackOverFlow Application" style="text;html=1;align=center;verticalAlign=middle;whiteSpace=wrap;rounded=0;" parent="1" vertex="1">
          <mxGeometry x="360" y="180" width="60" height="30" as="geometry" />
        </mxCell>
        <mxCell id="zHANtOEIMGBG5rkSFk1E-4" value="" style="whiteSpace=wrap;html=1;aspect=fixed;" parent="1" vertex="1">
          <mxGeometry x="290" y="210" width="200" height="200" as="geometry" />
        </mxCell>
        <mxCell id="zHANtOEIMGBG5rkSFk1E-10" value="ELS" style="ellipse;shape=cloud;whiteSpace=wrap;html=1;" parent="1" vertex="1">
          <mxGeometry x="670" y="180" width="120" height="80" as="geometry" />
        </mxCell>
        <mxCell id="zHANtOEIMGBG5rkSFk1E-28" value="" style="whiteSpace=wrap;html=1;aspect=fixed;" parent="1" vertex="1">
          <mxGeometry x="300" y="220" width="200" height="200" as="geometry" />
        </mxCell>
        <mxCell id="zHANtOEIMGBG5rkSFk1E-19" value="MySQL&lt;br&gt;DB" style="shape=cylinder3;whiteSpace=wrap;html=1;boundedLbl=1;backgroundOutline=1;size=15;" parent="1" vertex="1">
          <mxGeometry x="710" y="325" width="60" height="80" as="geometry" />
        </mxCell>
        <mxCell id="wUb4bXw---UR7JNTcLYH-3" value="" style="edgeStyle=orthogonalEdgeStyle;rounded=0;orthogonalLoop=1;jettySize=auto;html=1;entryX=0;entryY=0.5;entryDx=0;entryDy=0;entryPerimeter=0;" edge="1" parent="1" source="zHANtOEIMGBG5rkSFk1E-26" target="zHANtOEIMGBG5rkSFk1E-19">
          <mxGeometry relative="1" as="geometry">
            <mxPoint x="550" y="365" as="targetPoint" />
            <Array as="points">
              <mxPoint x="520" y="365" />
              <mxPoint x="520" y="365" />
            </Array>
          </mxGeometry>
        </mxCell>
        <mxCell id="wUb4bXw---UR7JNTcLYH-5" value="" style="edgeStyle=orthogonalEdgeStyle;rounded=0;orthogonalLoop=1;jettySize=auto;html=1;entryX=0;entryY=0.5;entryDx=0;entryDy=0;" edge="1" parent="1" source="zHANtOEIMGBG5rkSFk1E-26" target="wUb4bXw---UR7JNTcLYH-4">
          <mxGeometry relative="1" as="geometry" />
        </mxCell>
        <mxCell id="wUb4bXw---UR7JNTcLYH-6" value="" style="edgeStyle=orthogonalEdgeStyle;rounded=0;orthogonalLoop=1;jettySize=auto;html=1;" edge="1" parent="1" source="zHANtOEIMGBG5rkSFk1E-26" target="zHANtOEIMGBG5rkSFk1E-39">
          <mxGeometry relative="1" as="geometry">
            <Array as="points">
              <mxPoint x="390" y="470" />
              <mxPoint x="390" y="470" />
            </Array>
          </mxGeometry>
        </mxCell>
        <mxCell id="zHANtOEIMGBG5rkSFk1E-26" value="StackOverFlow Service" style="rounded=0;whiteSpace=wrap;html=1;" parent="1" vertex="1">
          <mxGeometry x="330" y="335" width="120" height="65" as="geometry" />
        </mxCell>
        <mxCell id="zHANtOEIMGBG5rkSFk1E-32" value="Search Service" style="rounded=0;whiteSpace=wrap;html=1;" parent="1" vertex="1">
          <mxGeometry x="330" y="240" width="120" height="60" as="geometry" />
        </mxCell>
        <mxCell id="zHANtOEIMGBG5rkSFk1E-33" style="edgeStyle=orthogonalEdgeStyle;rounded=0;orthogonalLoop=1;jettySize=auto;html=1;entryX=0.092;entryY=0.538;entryDx=0;entryDy=0;entryPerimeter=0;" parent="1" source="zHANtOEIMGBG5rkSFk1E-32" target="zHANtOEIMGBG5rkSFk1E-10" edge="1">
          <mxGeometry relative="1" as="geometry" />
        </mxCell>
        <mxCell id="zHANtOEIMGBG5rkSFk1E-39" value="S3" style="ellipse;shape=cloud;whiteSpace=wrap;html=1;" parent="1" vertex="1">
          <mxGeometry x="340" y="490" width="120" height="80" as="geometry" />
        </mxCell>
        <mxCell id="wUb4bXw---UR7JNTcLYH-4" value="cache" style="rounded=0;whiteSpace=wrap;html=1;" vertex="1" parent="1">
          <mxGeometry x="570" y="380" width="80" height="60" as="geometry" />
        </mxCell>
      </root>
    </mxGraphModel>
  </diagram>
</mxfile>
